<?xml version="1.0" encoding="UTF-8" standalone="no"?>
<svg
   height="128"
   width="128"
   version="1.1"
   id="svg7"
   sodipodi:docname="icon.svg"
   inkscape:version="1.3 (0e150ed6c4, 2023-07-21)"
   xmlns:inkscape="http://www.inkscape.org/namespaces/inkscape"
   xmlns:sodipodi="http://sodipodi.sourceforge.net/DTD/sodipodi-0.dtd"
   xmlns="http://www.w3.org/2000/svg"
   xmlns:svg="http://www.w3.org/2000/svg">
  <defs
     id="defs7" />
  <sodipodi:namedview
     id="namedview7"
     pagecolor="#ffffff"
     bordercolor="#000000"
     borderopacity="0.25"
     inkscape:showpageshadow="2"
     inkscape:pageopacity="0.0"
     inkscape:pagecheckerboard="0"
     inkscape:deskcolor="#d1d1d1"
     inkscape:zoom="6.3671875"
     inkscape:cx="64"
     inkscape:cy="64"
     inkscape:window-width="1920"
     inkscape:window-height="1019"
     inkscape:window-x="0"
     inkscape:window-y="0"
     inkscape:window-maximized="1"
     inkscape:current-layer="svg7" />
  <rect
     x="2"
     y="2"
     width="124"
     height="124"
     rx="14"
     fill="#363d52"
     stroke="#212532"
     stroke-width="4"
     id="rect1" />
  <path
     d="M 74.439803,9.0000764 A 19.961945,19.961945 0 0 0 54.477857,27.478184 19.961945,19.961945 0 1 0 34.515912,61.060831 v 14.479064 a 6.6539818,6.6539818 0 0 0 6.653982,6.653982 h 39.923891 a 6.6539818,6.6539818 0 0 0 6.653982,-6.653982 V 68.885913 L 107.70971,82.193877 V 42.269986 L 87.747767,55.57795 V 43.800402 A 19.961945,19.961945 0 0 0 74.439803,9.0000764 Z"
     fill="#8da5f3"
     id="path1"
     style="stroke-width:6.65398" />
  <path
     sodipodi:type="star"
     style="fill:#8da5f3;stroke:#8da5f3"
     id="path2"
     inkscape:flatsided="true"
     sodipodi:sides="3"
     sodipodi:cx="5.5391884"
     sodipodi:cy="11.383124"
     sodipodi:r1="2.4147239"
     sodipodi:r2="1.2073621"
     sodipodi:arg1="0"
     sodipodi:arg2="1.0471976"
     inkscape:rounded="0"
     inkscape:randomized="0"
     d="m 7.9539123,11.383124 -3.6220859,2.091213 0,-4.1824249 z"
     inkscape:transform-center-x="-5.1523013"
     transform="matrix(8.5348096,0,0,6.0150338,8.2960908,33.318007)" />
</svg>
